<?xml version="1.0" standalone="no"?>
<!DOCTYPE svg PUBLIC "-//W3C//DTD SVG 1.1//EN" "http://www.w3.org/Graphics/SVG/1.1/DTD/svg11.dtd">
<svg xmlns="http://www.w3.org/2000/svg">
<metadata>Generated by Fontastic.me</metadata>
<defs>
<font id="untitled-font-10" horiz-adv-x="512">
<font-face font-family="untitled-font-10" units-per-em="512" ascent="480" descent="-32"/>
<missing-glyph horiz-adv-x="512" />

<glyph glyph-name="ambulance" unicode="&#98;" d="M458 372l-267 0 0 2c0 14-12 25-25 25-14 0-25-11-25-25l0-2-16 0c-42 0-80-19-95-76l-26-106c0-34 22-62 52-72 0 2-1 5-1 8 0 30 25 55 55 55 31 0 56-25 56-55 0-4-1-9-2-13l169 0c-1 4-2 9-2 13 0 30 25 55 55 55 31 0 55-25 55-55 0-4 0-8-1-12 39 3 69 36 69 76l0 106c0 42-9 76-51 76z m-295-116l-103 0 13 52c0 2 1 5 3 11 5 26 34 23 34 23l53 0z m211-22l-48 0 0-48-45 0 0 48-47 0 0 45 47 0 0 47 45 0 0-47 48 0z"/>
<glyph glyph-name="assistive-3" unicode="&#99;" d="M502 120c-9 9-24 3-35-1-16-7-30-18-44-28-27-15-59-10-88-13-25-2-51 7-66 27 19 4 50 2 67-5 17-4 38 2 47 18 7 13-6 30-19 32-36 9-74 8-107 26-37 16-76 35-116 26-53-17-87-43-126-83-7-6-13-11-10-16 17-23 34-46 52-69 6-7 22 8 31 14 35 26 73 20 100 2 33-16 83-35 97-33 41 7 99-1 130 17 31 17 111 56 87 86z m-228 179c27 1 48 21 56 49 9 9 19 25 19 42 0 5 0 9-2 13-1 2-2 4-4 5 0 0-1 0-1 0 0 0 2 14 0 26-2 12-5 20-12 25-2 15-9 22-21 27-9 4-21 7-35 7-32 0-50-15-59-29-8-15-8-30-8-30 0 0 0-26 0-26-1 0-1 0-2 0-2-1-3-3-3-5-2-4-2-8-2-13 0-17 10-33 19-42 8-28 29-48 55-49z m-26-104c28-16 59-20 90-25 34 3 71 8 96 20 2 0 3 3 3 5 0 17-4 36-12 53-7 16-16 27-30 36-13 10-61 29-66 30-10-38-19-104-55-104-35 0-45 66-55 104-4-1-52-20-66-30-14-9-22-20-30-36-5-13-9-27-11-41 15 7 31 11 47 12 31 1 61-11 89-24z"/>
<glyph glyph-name="delivery-boy-2" unicode="&#100;" d="M63 296l17 0c2 0 4-2 4-4l0-23 22 0c3 0 5-2 5-4l0-17c0-2-2-4-5-4l-22 0 0-22c0-3-2-5-4-5l-17 0c-2 0-4 2-4 5l0 22-23 0c-2 0-4 2-4 4l0 17c0 2 2 4 4 4l23 0 0 23c0 2 2 4 4 4m-44 23c-5 0-10-5-10-10l0-105c0-5 5-9 10-9l114 0 0 114c0 5-4 10-9 10z m168 62c-11 0-22-9-23-21l-16-128c-2-17 10-32 27-35l82-11 34-72c5-11 19-16 30-11 12 5 17 19 12 31l-37 79c-5 9-13 16-24 17l-76 11 9 75 16-20c3-5 8-8 14-9l55-11c8-1 16 4 18 13 1 8-4 16-12 18l-52 10-34 43c-1 10-9 19-20 21-1 0-2 0-3 0z m15 108c-27 0-50-22-50-50 0-27 23-50 50-50 28 0 50 23 50 50 0 6-1 12-3 18l29 0c4 0 7 3 7 7 0 4-3 8-7 8l-38 0c-9 10-23 17-38 17z m193-195c-1 0-2 0-3-1-7-2-13-7-16-14 0 0 1-1 1-1 9-12 11-26 14-40 1-1 1-1 1-1 5-2 10 2 10 7l0 42c0 4-3 8-7 8m-59-14c-8 0-15-6-16-14 0-9 7-16 15-16l14 0 6-134c-2-6-3-12-3-19 0-2 0-4 0-7l-119 0-15 48c-1 4 1 8 5 8 4 0 6 2 6 5l0 4c0 14-11 25-25 25l-151 0c-3 0-6-3-6-6l0-22c0-4 3-6 6-6 4 0 7-4 6-8l-17-49c-4-14 6-28 20-28l14 0c-7 35 23 73 60 74 27 1 53-18 61-43 4-10 5-21 3-31l186 0c-7 36 25 75 63 74 23 1 44-13 55-33-2 32-29 57-61 57-3 0-6 0-10-1-6 37-27 56-46 66l-11 39c-2 10-11 17-21 17z m113-257c-27 0-50 22-50 49 0 27 23 50 50 50 27 0 49-23 49-50 0-27-22-49-49-49m-311 0c-27 0-49 22-49 49 0 27 22 49 49 49 27 0 49-22 49-49 0-27-22-49-49-49"/>
<glyph glyph-name="diagnosis" unicode="&#101;" d="M119 474c-22 0-41-18-41-40l0-386c0-23 19-41 41-41l274 0c23 0 41 18 41 41l0 386c0 22-18 40-41 40l-51 0 0-35c0-6-5-11-10-11l-152 0c-5 0-9 5-9 11l0 35z m12-86l31 0c5 0 8-3 8-7l0-31c0-5-3-8-8-8l-31 0c-4 0-8 3-8 8l0 31c0 4 4 7 8 7z m101-15l149 0c4 0 8-4 8-8 0-4-4-8-8-8l-149 0c-4 0-8 4-8 8 0 4 4 8 8 8z m-101-280l31 0c5 0 8-3 8-8l0-31c0-4-3-8-8-8l-31 0c-4 0-8 4-8 8l0 31c0 5 4 8 8 8z m101-15l149 0c4 0 8-4 8-8 0-5-4-8-8-8l-149 0c-4 0-8 3-8 8 0 4 4 8 8 8z m-37 425l122 0c5 0 8-3 8-8l0-45c0-4-3-8-8-8l-122 0c-4 0-8 4-8 8l0 45c0 5 4 8 8 8z m-31-200c-2 0-4-2-5-4l-20-91-28 0c-2 0-5-2-5-5 0-3 2-6 5-6l33 0c2 0 4 2 5 5l11 49 1-86c0-3 2-5 5-5 2 0 4 2 5 4l8 33 30 0c2 0 3 2 4 3l11 20-1-42c0-3 2-6 5-6 2 0 4 2 5 4l7 21 42 0c2 0 4 2 5 4l11 42-2-78c0-3 2-6 5-6 3 0 5 2 5 4l10 34 39 0c2 0 4 2 5 3l12 24-1-39c0-3 3-6 5-6 2 0 4 1 5 3l9 15 8 0c3 0 5 3 5 6 0 2-2 5-5 5l-12 0c-1 0-3-1-4-2l1 40c0 3-2 5-5 6-2 0-4-1-5-3l-21-41-40 0c-2 0-3-1-4-3l1 81c0 2-2 5-5 5-2 0-4-2-5-4l-21-79-41 0c-1 0-2 0-3-1l1 35c0 3-3 5-5 5-2 0-4-1-5-3l-19-36-31 0c-2 0-4-1-4-2l-2 92c0 3-2 5-5 5z"/>
<glyph glyph-name="dr-icon" unicode="&#102;" d="M176 305c2-3 6-5 9-8 20-15 45-24 72-24 27 0 52 9 72 24 3 3 6 5 9 8 3 3 5 5 8 8 18 21 29 48 29 78 0 65-53 117-118 117-65 0-118-52-118-117 0-30 11-57 29-78 2-3 5-5 8-8z m280-295l0 196c0 43-35 79-79 79l-1 0 0-64c19-6 33-23 33-44l0-36c0-7-6-13-13-13l-1 0c-7 0-13 6-13 13l0 36c0 11-8 20-19 20-11 0-20-9-20-20l0-36c0-7-6-13-13-13l0 0c-7 0-13 6-13 13l0 36c0 21 14 38 33 44l0 62c-24-24-57-37-93-37-35 0-67 15-91 37l0-72c18-6 30-22 30-41 0-23-19-42-42-42-24 0-43 19-43 42 0 19 12 35 29 41l0 74-3 0c-44 0-80-36-80-79l0-196c0-3 3-6 7-6l386 0c3 0 6 3 6 6z m-319 160c0-9 7-16 16-16 9 0 17 7 17 16 0 5-3 10-6 13-3 2-7 4-11 4-4 0-7-2-10-4-4-3-6-8-6-13z"/>
<glyph glyph-name="esclate" unicode="&#103;" d="M461 130l-78 39c-8 4-12 11-12 19l0 28c2 2 4 5 6 8 10 14 18 30 24 47 11 6 19 17 19 30l0 33c0 8-3 15-8 21l0 44c0 4 2 31-17 53-17 20-45 29-82 29-37 0-64-9-81-29-12-13-16-28-17-39-14 7-30 11-49 11-85 0-90-73-90-74l0-37c-6-6-8-13-8-19l0-29c0-9 4-17 10-22 7-26 24-45 30-52l0-22c0-7-3-13-9-16l-55-34c-21-12-34-33-34-57l0-31 492 0 0 33c0 28-16 53-41 66z m-336-65l0-18-98 0 0 15c0 18 9 34 25 43l55 34c11 6 18 17 18 30l0 29-3 3c0 0-22 20-28 48l-1 4-3 1c-4 3-6 7-6 11l0 29c0 3 2 6 5 9l3 3 0 44c0 2 5 58 74 58 19 0 36-5 49-14l0-39c-5-6-8-13-8-21l0-33c0-2 0-5 1-7 0-1 0-2 1-3 0-1 0-3 1-4 0 0 0 0 0 0 2-4 5-8 9-11 0-1 0-1 0-1 1-2 1-4 2-5l0-3c1 0 1 0 1-1 0-1 0-1 1-2 0-2 1-3 1-5 1-1 1-1 1-2 1-2 1-3 2-5 0 0 0-1 1-1l0-1c0-1 1-1 1-1 1-2 1-4 2-6 0 0 0 0 1 0 0-1 1-2 1-3 1-2 2-4 3-5 0-1 1-2 1-2 1-2 2-4 3-6 1 0 1-1 1-1 2-3 4-6 5-8 1 0 1 0 1-1 0 0 1 0 1-1l0-27c0-8-5-15-11-19l-22-12-4 1-1-4-47-25c-23-13-38-37-38-65z m360-18l-344 0 0 18c0 21 12 41 30 51l73 40c13 6 20 19 20 33l0 33-1 2-1 0c0 0 0 1-1 2 0 0 0 0 0 0-1 1-1 2-2 2 0 0 0 0 0 0-1 2-3 4-4 7 0 0 0 0 0 0-1 1-2 3-3 4 0 0 0 0 0 1-2 3-4 6-6 10 0 0 0 0 0 0-1 2-2 4-3 7 0 0 0 0 0 1-1 1-1 2-2 3 0 0 0 1 0 1-1 1-1 2-2 3 0 3-1 5-2 7l0 2c0 0 0 0-1 0 0 3-1 6-2 8l0 4-3 1c-5 3-8 9-8 14l0 33c0 4 2 9 6 12l2 2 0 54 0 0c0 6 0 24 13 40 14 15 37 23 69 23 32 0 55-8 69-23 16-18 13-41 13-42l0-52 3-2c4-3 5-8 5-12l0-33c0-7-4-13-11-16l-4-1-2-4c-5-17-13-33-23-47-2-3-5-6-7-8l-2-3 0-34c0-14 8-27 21-34l79-39c19-10 31-29 31-51l0-17z"/>
<glyph glyph-name="hospital-bed" unicode="&#104;" d="M442 259l50 0 0 45c0 10-8 17-17 17l-282 0c1-1 2-3 3-5 5-14 8-28 8-43 0-4 0-9-1-14z m-347 104c-2 0-4 0-6 0l0-103 95 0c0 4 1 9 1 13 0 18-5 35-14 48-16 26-44 42-76 42z m-76-260l34 0c10 0 17 7 17 16l0 54 372 0 0-54c0-9 7-16 17-16l33 0c10 0 17 7 17 16l0 104c0 10-7 17-17 17l-422 0 0 154c0 9-7 17-17 17l-34 0c-9 0-16-8-16-17l0-275c0-9 7-16 16-16z"/>
<glyph glyph-name="daignostic" unicode="&#105;" d="M439 79l-366 0c-36 0-65 29-65 65l0 246c0 36 29 65 65 65l366 0c35 0 65-29 65-65l0-246c0-36-30-65-65-65z m-366 358c-26 0-47-21-47-47l0-246c0-26 21-47 47-47l366 0c26 0 47 21 47 47l0 246c0 26-21 47-47 47z m-10-187c0 6 5 11 11 11l48 0 20 72c2 5 6 9 11 8 6 0 10-4 11-9l15-110 23 174c0 5 5 9 10 9 6 0 11-4 11-9l21-163 8 21c2 4 6 7 10 7l176 0c6 0 11-5 11-11 0-6-5-11-11-11l-168 0-22-53c-2-5-7-8-12-7-4 1-8 5-9 10l-15 119-22-169c-1-6-5-10-11-10-5 0-10 4-11 10l-19 138-9-30c-1-5-5-8-10-8l-56 0c-6 0-11 5-11 11z"/>
<glyph glyph-name="loction-pin" unicode="&#106;" d="M256 509c-92 0-167-75-167-167 0-37 24-98 73-185 34-62 68-113 70-116l24-37 25 37c2 3 36 54 70 116 49 87 73 148 73 185 0 92-75 167-168 167z m0-253c-47 0-86 39-86 87 0 48 39 87 86 87 48 0 87-39 87-87 0-48-39-87-87-87z m58 101l-42 0 0 42c0 3-1 4-3 4l-23 0c-3 0-4-1-4-4l0-42-42 0c-2 0-4-1-4-4l0-22c0-3 2-4 4-4l42 0 0-42c0-3 1-4 4-4l23 0c2 0 3 1 3 4l0 42 42 0c3 0 4 1 4 4l0 22c0 3-1 4-4 4z"/>
<glyph glyph-name="logo-faveicon" unicode="&#107;" d="M342 389c4-8 11-25 8-37-2 14-8 27-14 34-6 6-12 19-10 26 1 6 7 8 7 8 0-7 6-22 9-31z m-9-14c5-2 11-9 13-19-1 18-13 25-17 34l-2-5c0 0 2-7 6-10z m-50 125c-1 0-2 0-4 0l1 1-240 0 0-35c74 0 69-81 68-167 0-9 0-18 0-28 0-61-1-109-1-145-4-47-19-82-67-82l0-35 101 0c4 0 21 1 25 2l0-2 114 0 0 35c-56 0-66 46-68 106 0 39-2 49 0 63 0 10 1 20 2 31 1 6 2 10 4 14l0 0c0 0 13 40 48 51 30 9 45 13 58 26 12 13 10 19 10 19 0 0 3 4 6-1 4-6 8-15 4-24-3-9-20-29-32-35 13 4 31 20 36 29 6 10 10 28 5 49-3 13-15 36-16 47-1 9-1 15 2 17 2 2 4 0 4 0 20-32 33-63 34-78 1-15 10-41-32-83-19-19-48-24-73-24-7-8-11-28-3-50 15-25 47-36 85-32 62 6 120 81 120 151 0 74-31 180-191 180z"/>
<glyph glyph-name="nursing" unicode="&#108;" d="M349 104l37 0 0-21-37 0 0-35-21 0 0 35-34 0 0 21 34 0 0 36 21 0z m-191 261c0 29 13 55 34 73 0 2 0 4 0 5 0 36 29 65 64 65 35 0 64-29 64-65 0-1 0-3 0-5 21-18 34-44 34-73 0-54-44-98-98-98-54 0-98 44-98 98z m47 78c0-28 23-51 51-51 28 0 51 23 51 51 0 29-23 51-51 51-28 0-51-22-51-51z m217-308l0-101 0 0-7-3c-3-2-56-28-148-28-47 0-104 7-170 27l-7 3 0 1 0 101c0 69 56 125 125 125l82 0c69 0 125-56 125-125z m-13 0c0 62-50 112-112 112l-9 0c-20-13-27-67-29-90l-6 1c0 49-23 79-32 89l-6 0c-62 0-112-50-112-112l0-87 0-4c188-58 305-1 306 0l0 4 0 87z m-153 288c11 0 20 9 20 20 0 11-9 20-20 20-11 0-20-9-20-20 0-11 9-20 20-20z"/>
<glyph glyph-name="occupational-therapist" unicode="&#109;" d="M257 461c0-25-21-45-46-45-25 0-46 20-46 45 0 26 21 46 46 46 25 0 46-20 46-46z m120-202c-1 6-8 21-9 24-19 37-39 73-59 108-31 53-114 5-83-49 1-1 2-3 3-4-19-25-48-34-84-30-22 2-27-23-16-37l0-266 16 0 0 258c44-5 80 8 107 34 11-20 21-40 32-60l-68-65c-9-9-13-21-10-33 9-33 25-95 29-112 9-36 65-26 56 10-9 33-20 71-29 104 0 0 0 0 0 1 0-1 62 54 62 54 2-55 5-114 8-165 2-36 58-33 56 3-3 70-7 154-11 225z"/>
<glyph glyph-name="phone" unicode="&#110;" d="M362 508l-212 0c-20 0-37-16-37-37l0-430c0-21 17-37 37-37l212 0c20 0 37 16 37 37l0 430c0 21-17 37-37 37z m-158-22l104 0c3 0 5-4 5-9 0-5-2-9-5-9l-104 0c-3 0-5 4-5 9 0 5 2 9 5 9z m52-446c-13 0-23 11-23 24 0 13 10 23 23 23 13 0 23-10 23-23 0-13-10-24-23-24z m115 81l-230 0 0 325 230 0z"/>
<glyph glyph-name="visit-doctor" unicode="&#111;" d="M352 415c0-52-43-95-95-95-53 0-95 43-95 95 0 53 42 95 95 95 52 0 95-42 95-95z m1-127l-1 0-4-53c-1-7-6-13-14-15l-30-6 8-22c1-4 1-9-1-13 0 0-30-57-40-76 0 0-4-8-14-8-12 0-15 8-15 8-10 19-39 76-39 76-2 4-3 9-1 13l7 22-30 6c-7 2-13 8-13 15l-4 53-2 0c-65 0-119-53-119-119l0-134c0-18 15-33 34-33l364 0c18 0 33 15 33 33l0 134c0 66-53 119-119 119z m43-229l-26 0 0-24c0-9-7-17-16-17-9 0-16 8-16 17l0 24-25 0c-9 0-17 8-17 17 0 9 8 16 17 16l25 0 0 26c0 9 7 16 16 16 9 0 16-7 16-16l0-26 26 0c9 0 16-7 16-16 0-9-7-17-16-17z m-117 184l37 7 3 38-124 0 3-38 36-7c5-1 9-4 11-8 3-4 3-9 2-14l-12-33 22-41 21 41-11 33c-2 5-1 10 1 14 2 4 6 7 11 8z"/>
<glyph glyph-name="time" unicode="&#112;" d="M276 490c-129 0-234-104-235-233l0-2c0-5-3-8-10-8l-20 0c-4 0-7-1-8-4-2-3 1-8 2-9l57-90 0 0c2-2 4-3 6-3 1 0 4 1 6 4l56 89c1 1 4 5 2 9-1 3-3 4-8 4l-21 0c-6 0-10 2-10 10 0 100 82 182 183 182 100 0 182-82 182-183 0-100-82-182-182-182-27 0-53 6-77 17-4 1-7 2-11 2-10 0-19-6-24-15-6-13 0-28 13-34 31-15 64-22 99-22 129 0 234 105 234 234 0 129-105 234-234 234z m-9-120c-11 0-21-10-21-22l0-89c0-11 6-23 16-29l78-50c3-3 7-4 11-4 7 0 14 4 18 10 7 10 4 23-6 30l-74 47 0 85c0 12-10 22-22 22z"/>
<glyph glyph-name="technical-service-icon" unicode="&#113;" d="M218 231c0-14-12-25-26-25-14 0-25 11-25 25 0 14 11 26 25 26 14 0 26-12 26-26z m104 26c-15 0-26-12-26-26 0-14 11-25 26-25 14 0 25 11 25 25 0 14-11 26-25 26z m184-11l0-49c0-24-20-44-44-44l-32 0c-32-88-113-142-173-142-60 0-141 54-173 142l-32 0c-24 0-44 20-44 44l0 49c0 16 9 31 23 38 1 69 21 123 60 161 39 37 95 55 166 55 71 0 127-18 166-55 39-38 59-92 60-161 14-7 23-22 23-38z m-94-15c0 12 0 22-1 33-20 18-55 31-100 36 6-6 11-15 14-27-28 22-82 17-122 65-3 3-5 6-7 8 0 0 0 0 0 0l0 0c-7 10-9 16-10 9-1-55-40-99-84-105 0-6-1-12-1-19 0-23 4-45 11-64 24-30 65-38 101-41 7 11 22 19 39 19 24 0 43-14 43-31 0-17-19-30-43-30-18 0-33 8-40 19-25 2-53 6-77 17 35-51 88-78 122-78 53 0 155 67 155 189z m44 59c-3 120-71 184-199 184-128 0-197-64-199-184l17 0c6 40 19 74 39 99 32 41 80 62 143 62 63 0 111-21 143-62 20-25 33-59 39-99z"/>
<glyph glyph-name="stethoschope" unicode="&#114;" d="M275 483c0-14-12-25-26-25-13 0-25 11-25 25 0 14 12 25 25 25 14 0 26-11 26-25z m134 0c0-14-12-25-26-25-13 0-25 11-25 25 0 14 12 25 25 25 14 0 26-11 26-25z m50-23c-13 22-36 36-62 36l0-25c17 0 32-9 40-23 8-15 8-32 0-46l-80-140c-9-14-24-23-40-23-17 0-32 9-40 23l-81 140c-8 14-8 31 0 46 9 14 23 23 40 23l0 25c-26 0-49-14-61-36-13-22-13-49 0-71l80-139c11-19 29-31 49-35l0-67c0-66-39-119-86-119-48 0-87 53-87 119l0 80c29 6 50 31 50 61 0 35-28 63-62 63-35 0-63-28-63-63 0-30 21-55 50-61l0-80c0-80 50-144 112-144 61 0 111 64 111 144l0 67c21 4 39 16 49 35l81 139c13 22 13 49 0 71z"/>
<glyph glyph-name="speech-therapist-3" unicode="&#115;" d="M201 507c-107 0-161-47-181-102-12-34-13-73-5-103 3-12 13-37 18-45 13-22 40-74 44-84 3-11 4-18 4-30-1-39-30-82-45-123-3-6 1-14 9-15l232 0c6 0 11 6 10 12 0 2 0 16 0 31 13 0 26 0 48 1 21 0 35 10 48 32-2 2-4 4-6 7-8 9-16 17-21 23-3 3-5 6-7 8-1 1-1 2-2 3 0 0 0 1-1 1 0 1 0 1-1 2 0 1-1 2 0 6 1 4 2 4 3 5 0 0 1 1 1 1 1 0 1 1 1 1 1 0 2 1 3 1 3 2 6 3 9 5 8 4 18 8 30 13 2 1 4 2 6 3 1 8 2 16 4 24 1 9 18 2 27 4 8 1 20 5 25 16 5 10-1 20-5 29-5 9-12 20-19 30-8 11-15 22-20 32-4 7-8 18-8 25 0 4-4 41-9 58-21 80-84 129-192 129z m151-187c13 0 23-11 23-24 0-13-10-23-23-23-13 0-24 10-24 23 0 13 11 24 24 24z m60-234l-3 14c10 9 10 24 0 34l3 15c17-17 17-45 0-63z m27-22l-6 7c21 21 21 72 0 93l6 7c30-29 30-77 0-107z m33-21l-8 8c33 33 32 100-1 133l9 8c40-41 40-108 0-149z m-97 253c0-13-10-23-23-23-13 0-24 10-24 23 0 13 11 24 24 24 13 0 23-11 23-24z"/>
<glyph glyph-name="share" unicode="&#116;" d="M477 179c4 17 6 34 6 51 0 79-40 151-108 193-4 3-10 1-12-3-3-4-1-9 3-12 62-38 99-105 99-178 0-15-1-30-4-45-5 1-9 1-13 1-34 0-61-27-61-61 0-34 27-61 61-61 34 0 61 27 61 61 0 23-13 43-32 54z m-29-98c-24 0-44 20-44 44 0 24 20 44 44 44 24 0 44-20 44-44 0-24-20-44-44-44z m-112-45c-25-10-52-16-80-16-56 0-109 23-149 62 11 11 18 26 18 43 0 34-27 61-61 61-34 0-61-27-61-61 0-34 27-61 61-61 11 0 21 3 29 8 43-44 102-69 163-69 30 0 59 6 87 17 4 2 6 7 4 11-1 5-6 7-11 5z m-316 89c0 24 20 44 44 44 24 0 44-20 44-44 0-24-20-44-44-44-24 0-44 20-44 44z m18 112c0 0 0 0 0 0 5 0 9 3 9 8 6 88 66 161 150 186 8-26 31-44 59-44 34 0 61 27 61 61 0 34-27 61-61 61-34 0-61-27-61-61-92-25-159-106-165-202-1-5 3-9 8-9z m218 255c24 0 44-20 44-44 0-24-20-44-44-44-24 0-44 20-44 44 0 24 20 44 44 44z"/>
<glyph glyph-name="relax" unicode="&#117;" d="M456 59c-30 12-60 23-90 34-16 7-30 5-45-3-17-10-35-19-53-29-14-9-26-8-40 0-24 14-48 27-72 41-5 3-10 5-15 8l-9 5c-1 1-2 2-3 2-24 14-47 27-70 40-4 2-7 4-10 5-7 3-15 0-19-6-4-6-3-15 3-19 2-3 5-4 8-6 13-8 45-25 45-25l-38-62-32 0c-7 0-12-6-12-13l0-6c0-7 5-13 12-13l471 0c7 0 12 6 12 13l0 6c0 7-5 13-12 13l-15 0c-1 9-5 11-16 15z m-126 1c12 7 25 7 39 1 14-6 28-12 42-17l-111 0c10 5 20 10 30 16z m-225 37c0 0 63-35 95-53l-126 0z m16 77c1 15-10 27-25 28-14 0-26-11-27-25-1-14 10-27 25-28 14-1 26 11 27 25z m143 326c-135 0-245-110-245-245 0-5 3-9 8-11 5-3 10-2 14 2 0 0 24 20 53 20 16 0 31-7 43-20 3-2 6-4 10-4 3 0 7 2 9 4 0 1 23 23 52 23 15 0 27-7 44-19l0-126c0-1 3-1 5-1 6 0 22 7 22 7l0 120c8 12 27 19 43 19 28 0 50-22 50-23 2-2 6-4 9-4 4 0 7 2 9 4 13 13 28 20 44 20 28 0 52-20 53-21 2-2 5-3 8-3 2 0 4 1 6 2 4 2 7 6 7 11 0 135-109 245-244 245z m-61-35c0 0 0 0 0 0z m-70-182c0 1 0 1 0 1-12 6-25 9-39 9-18 0-35-6-47-12 10 87 73 159 156 184-38-35-64-102-70-182z m119 151l0-151c-17 8-29 12-44 12-19 0-36-5-48-12 7 93 40 168 92 180z m116-151c-12 7-27 13-46 13-16 0-35-5-43-13l0 180c43-12 84-88 90-181 0 0 0 1-1 1z m66 9c-14 0-27-2-39-8-5 79-31 145-68 180 82-24 144-96 154-184-13 6-29 12-47 12z m-297-168c29-17 59-34 89-51 6-4 12-6 18-6 6 0 12 2 19 5 19 12 40 22 59 33 7 4 14 6 22 6 5 0 11-1 17-4 24-10 49-19 73-29 4-1 8-3 12-3l1 0c6 0 11 4 12 10 2 6 1 13-5 17-2 1-5 2-7 3-30 12-59 22-88 34-7 3-13 4-19 4-8 0-15-2-23-6-13-6-55-23-61-23-6 0-12 2-18 5-25 15-65 38-84 48-17 9-32-8-32-21 0-10 6-18 15-22z"/>
<glyph glyph-name="physiotherapist" unicode="&#118;" d="M128 352c0-19-15-34-33-34-19 0-34 15-34 34 0 18 15 33 34 33 18 0 33-15 33-33z m-29-52c-9-12-6-29 6-38l86-64c3-1 5-3 8-4 2-1 5-2 8-2l181 0c9 0 17 7 17 17 0 9-8 16-17 16l-144 0 47 57 54-28c8-4 18-1 22 7 5 8 1 18-7 23l-66 33c-7 4-15 2-20-4l-57-68-81 60c-12 9-28 6-37-5z m-72 9l-25-34 193-143 216 0 0 42-202 0z m344 105c17-8 37 0 45 16 8 17 1 37-16 45-17 8-37 1-45-16-8-17-1-37 16-45z m138-137c0 3-2 74-51 135-6 8-14 11-23 10-3 0-6 0-8-2-2-1-4-2-6-3-1-1-2-2-3-3l-98-72c-7-5-9-16-4-23 4-5 9-7 14-7 3 0 7 1 10 3l80 59c34-45 36-97 36-97 0-5 1-9 3-13l-36-96c-1-2-1-5-1-7l6-108c1-9 8-15 17-15 0 0 0 0 1 0 9 0 16 8 15 17l-6 104 18 48 2-163c0-9 7-16 16-16 0 0 0 0 1 0 9 0 16 7 16 16l2 222c1 3-1 7-1 11z"/>
</font>
</defs>
</svg>
